<?xml version="1.0" encoding="UTF-8" standalone="no"?>
<!-- Created with Inkscape (http://www.inkscape.org/) -->

<svg
   version="1.1"
   id="svg1"
   width="4172"
   height="3240"
   viewBox="0 0 4172 3240"
   sodipodi:docname="clock.svg"
   inkscape:version="1.3.2 (091e20ef0f, 2023-11-25, custom)"
   xmlns:inkscape="http://www.inkscape.org/namespaces/inkscape"
   xmlns:sodipodi="http://sodipodi.sourceforge.net/DTD/sodipodi-0.dtd"
   xmlns:xlink="http://www.w3.org/1999/xlink"
   xmlns="http://www.w3.org/2000/svg"
   xmlns:svg="http://www.w3.org/2000/svg">
  <sodipodi:namedview
     id="namedview1"
     pagecolor="#ffffff"
     bordercolor="#000000"
     borderopacity="0.25"
     inkscape:showpageshadow="2"
     inkscape:pageopacity="0.0"
     inkscape:pagecheckerboard="0"
     inkscape:deskcolor="#d1d1d1"
     inkscape:zoom="0.15961882"
     inkscape:cx="1578.7612"
     inkscape:cy="1829.3582"
     inkscape:window-width="1920"
     inkscape:window-height="1023"
     inkscape:window-x="0"
     inkscape:window-y="33"
     inkscape:window-maximized="1"
     inkscape:current-layer="svg1" />
  <defs
     id="defs1">
    <linearGradient
       id="linearGradient14"
       inkscape:collect="always">
      <stop
         style="stop-color:#dbdbdb;stop-opacity:1;"
         offset="0"
         id="stop14" />
      <stop
         style="stop-color:#ffffff;stop-opacity:0;"
         offset="1"
         id="stop15" />
    </linearGradient>
    <linearGradient
       id="linearGradient1"
       inkscape:collect="always">
      <stop
         style="stop-color:#000000;stop-opacity:0;"
         offset="0"
         id="stop1" />
      <stop
         style="stop-color:#000000;stop-opacity:0;"
         offset="1"
         id="stop2" />
    </linearGradient>
    <inkscape:perspective
       sodipodi:type="inkscape:persp3d"
       inkscape:vp_x="0 : 1620 : 1"
       inkscape:vp_y="0 : 1000 : 0"
       inkscape:vp_z="4172 : 1620 : 1"
       inkscape:persp3d-origin="2086 : 1080 : 1"
       id="perspective1" />
    <linearGradient
       inkscape:collect="always"
       xlink:href="#linearGradient1"
       id="linearGradient2"
       x1="3098.5162"
       y1="2623.4667"
       x2="3784.1356"
       y2="2623.4667"
       gradientUnits="userSpaceOnUse" />
    <linearGradient
       inkscape:collect="always"
       xlink:href="#linearGradient14"
       id="linearGradient15"
       x1="1125.7461"
       y1="2041.1163"
       x2="1340.2823"
       y2="1626.8005"
       gradientUnits="userSpaceOnUse" />
  </defs>
  <g
     inkscape:groupmode="layer"
     inkscape:label="Image"
     id="g1">
    <path
       id="path13"
       style="fill:url(#linearGradient15);stroke:none;stroke-width:0;stroke-dasharray:none;stroke-opacity:1"
       d="m 1881.5725,381.74639 c -22.2745,-0.37067 -43.9045,4.20124 -66.1777,13.69727 -57.0999,24.34407 -530.7148,307.8482 -880.52347,527.07812 -223.43331,140.02872 -249.94516,159.66892 -323.59179,239.71292 -101.09007,109.8715 -193.67552,263.9107 -222.82226,392.0591 -7.30448,32.1154 -13.65719,103.9394 -8.68341,107.9392 1.29836,1.0441 230.28957,127.1663 504.24281,275.4855 273.95312,148.3193 650.45962,342.8991 832.22962,441.6119 l 330.4922,179.4785 1.3281,-17.4687 c 5.4553,-71.7135 31.617,-156.7344 76.5625,-248.8145 54.6144,-111.8889 117.8419,-200.4697 198.9473,-278.7207 52.1931,-50.3562 76.1256,-67.8249 195.293,-142.5547 124.2803,-77.9361 693.7314,-423.7066 901.5801,-547.4394 48.0456,-28.6018 85.6271,-43.9726 107.7753,-44.0782 8.3419,-0.04 17.5873,-1.6332 20.5469,-3.541 5.5535,-3.5799 -1548.4993,-858.3533 -1597.1543,-878.48046 -24.8512,-10.28024 -47.7704,-15.59417 -70.0449,-15.96485 z m 1675.2207,908.95121 c -21.1383,-0.8239 -44.2157,3.4596 -67.5527,12.6582 -20.775,8.1887 -318.1579,186.058 -713.0606,426.4922 -247.7396,150.8349 -357.5673,220.7489 -398.5097,253.6855 -91.1234,73.305 -176.3542,184.9026 -239.4688,313.5527 -48.0054,97.8522 -74.6739,184.8217 -74.8555,244.1036 l -0.082,26.7636 48.3926,26.0586 48.3926,26.0586 3.6054,-22.1328 c 1.9831,-12.1736 5.7679,-35.4936 8.4121,-51.8223 7.5294,-46.4957 30.6954,-110.8452 65.7989,-182.7714 61.5139,-126.0409 151.9339,-242.5524 247.9531,-319.502 56.695,-45.4353 356.9809,-231.6674 859.2773,-532.9082 231.7893,-139.0104 270.6975,-159.7188 308.0645,-163.9727 11.036,-1.2564 20.0664,-3.7789 20.0664,-5.6054 0,-6.4285 -73.4525,-43.249 -96.0039,-48.125 -6.5529,-1.4169 -13.3836,-2.2586 -20.4297,-2.5332 z"
       sodipodi:nodetypes="ssssssssccsssssssssssssscccsssssssss" />
    <path
       id="path10"
       style="fill:#d2d2d2;fill-opacity:1;stroke:none;stroke-width:0;stroke-dasharray:none;stroke-opacity:1"
       d="m 384.12166,1655.6927 1.68554,26.7851 c 8.5998,136.6604 31.6691,202.4928 84.3379,240.6524 8.21121,5.9492 239.71705,138.5574 514.45703,294.6855 274.73987,156.1282 640.89527,370.3535 816.72897,470.4584 175.8335,100.105 352.1619,199.442 353.8104,199.5699 4.7827,0.3711 -20.8968,-23.8729 -39.4246,-51.5026 -35.474,-52.9011 -60.013,-131.3079 -64.8041,-226.2162 l 2.8032,-51.5625 -811.358,-438.5575 C 799.03835,1880.3809 425.19616,1676.7394 410.62166,1669.2708 Z M 2057.581,2566.3843 c -4.811,0.9885 -2.2868,48.6919 4.2741,98.8127 16.1746,123.5641 70.2375,217.3928 155.1731,259.9044 18.0583,9.0385 79.6863,29.3706 81.8334,29.3706 2.1471,0 -39.2335,-30.8663 -48.8174,-41.526 -41.326,-45.9643 -78.9858,-139.1263 -77.7237,-253.3657 l 0.4815,-43.5828 -56.3366,-21.6154 c -26.4055,-14.2627 -60.6821,-34.9807 -62.5716,-35.7134 -0.1683,-0.065 3.8424,7.6837 3.6872,7.7156 z"
       sodipodi:nodetypes="cssssssccsccssssssccss" />
    <path
       style="opacity:1;fill:none;fill-opacity:1;stroke:#000000;stroke-width:8.498;stroke-linecap:round;stroke-linejoin:round;stroke-opacity:1;stroke-dasharray:none"
       d="m 2517.2282,2893.7428 c 306.3325,-201.3693 674.5756,-434.1729 933.7184,-611.3553 259.1428,-177.1824 377.4873,-542.2686 366.0054,-702.1982 -11.482,-159.9295 -53.7465,-318.6497 -258.3602,-197.2028 -204.6137,121.4469 -787.0658,470.9592 -1012.1044,617.1044 -225.0386,146.1452 -376.1592,456.8105 -373.1135,602.7697 3.0457,145.9592 37.5218,492.2515 343.8543,290.8822 z M 3613.1871,1285.7471 c -43.2386,-17.3659 -96.5253,-20.8356 -169.9595,24.0439 -206.1011,125.9591 -787.0658,470.9592 -1012.1044,617.1044 -225.0386,146.1452 -368.4188,456.8542 -373.1135,602.7697 -11.1258,345.8009 153.7124,405.6171 284.3228,426.7032 m -138.1038,-43.935 -1717.77565,-976.4722 c -92.05849,-51.0093 -103.18882,-166.5588 -106.23452,-312.518 -3.0457,-145.9592 148.0749,-456.6245 373.1135,-602.7697 225.0386,-146.14522 804.84487,-500.23002 1012.10437,-617.10442 74.4149,-41.96287 119.3532,-54.84589 205.238,-17.36288 l 1767.4883,968.3435"
       id="path38"
       sodipodi:nodetypes="szzzzzscssscccssscc"
       inkscape:label="path38" />
    <path
       style="fill:none;fill-opacity:0;stroke:#000000;stroke-width:8.498;stroke-linecap:round;stroke-linejoin:round;stroke-opacity:1;stroke-dasharray:none"
       d="m 2413.8155,2249.7279 0.7904,428.0094 1161.7702,-740.481 -1.7448,-405.2262 z"
       id="path40"
       sodipodi:nodetypes="ccccc" />
    <path
       style="fill:none;fill-opacity:0;stroke:#000000;stroke-width:8.498;stroke-linecap:round;stroke-linejoin:round;stroke-opacity:1;stroke-dasharray:none"
       d="m 2414.6343,2677.7899 -0.1609,20.0073 1182.9613,-757.7022 -21.2564,-4.7726"
       id="path41"
       sodipodi:nodetypes="cccc" />
    <path
       style="fill:none;fill-opacity:0;stroke:#000000;stroke-width:8.498;stroke-linecap:round;stroke-linejoin:round;stroke-opacity:1;stroke-dasharray:none"
       d="m 3574.496,1532.1144 22.993,-13.3546 -0.8553,422.6556"
       id="path42"
       sodipodi:nodetypes="ccc" />
    <path
       d="m 3112.8047,2384.1202 c 0.14,9.04 -0.75,17.75 -2.65,26.14 -1.87,8.3 -4.65,15.63 -8.32,22 -3.67,6.36 -8.01,11.24 -13.03,14.66 l -1.87,1.28 0.34,19.91 -8.95,6.1 -0.36,-19.89 -1.87,1.28 c -5.04,3.43 -9.44,4.51 -13.23,3.25 -3.79,-1.32 -6.73,-4.76 -8.83,-10.32 -2.11,-5.62 -3.25,-12.89 -3.42,-21.8 -0.28,-13.98 1.69,-26.33 5.89,-37.05 4.25,-10.81 10.41,-19 18.49,-24.56 l 1.36,-0.94 -0.28,-16.18 9.02,-6.22 0.28,16.2 1.33,-0.91 c 8.13,-5.6 14.45,-5.99 18.96,-1.17 4.54,4.79 6.92,14.21 7.14,28.22 z m -9.07,6.57 c -0.34,-21.69 -6.32,-28.58 -17.91,-20.62 l -0.24,0.17 1.14,65.92 0.61,-0.42 c 5.45,-3.72 9.59,-9.4 12.42,-17.04 2.83,-7.64 4.16,-16.98 3.98,-28.01 z m -44.11,30.22 c 0.21,10.98 1.82,18.28 4.84,21.92 3.01,3.63 7.23,3.59 12.68,-0.13 l 0.61,-0.41 -1.18,-65.86 -0.42,0.29 c -5.72,3.93 -9.96,9.53 -12.71,16.8 -2.76,7.27 -4.03,16.4 -3.82,27.39 z m 118.48,-103.96 c 0.13,11.93 -1.85,22.83 -5.93,32.7 -4.04,9.83 -9.61,17.17 -16.71,22.02 l -19.63,13.43 0.67,48.52 -9.01,6.13 -1.8,-125.04 28.24,-19.47 c 7.55,-5.19 13.43,-5.9 17.65,-2.1 4.22,3.8 6.39,11.74 6.52,23.81 z m -9.16,6.47 c -0.19,-16.3 -5.5,-20.87 -15.93,-13.7 l -18.05,12.42 0.69,49.56 18.36,-12.58 c 10.15,-6.95 15.12,-18.84 14.93,-35.7 z m 22.2,-53.81 9.16,-6.32 0.52,55.66 c 2.39,-1.64 4.3,-3.55 5.73,-5.73 1.42,-2.24 2.9,-5.54 4.44,-9.9 1.54,-4.43 3.97,-12.67 7.32,-24.75 l 9.65,-34.33 9.64,-6.65 -13.36,46.41 c -4.1,14.21 -6.91,22.88 -8.42,26.03 l 24.89,52.64 -10.62,7.23 -20.91,-47.03 c -0.79,1.26 -2.06,2.88 -3.8,4.85 -1.72,1.96 -3.19,3.36 -4.44,4.21 l 0.54,57.45 -9.09,6.19 z m 84.42,-43.95 0.48,112.96 -9.13,6.21 -0.55,-112.84 -23.37,16.09 -0.1,-14.14 56.11,-38.65 0.04,14.22 z m 30.57,50.64 -0.03,-14.46 24.26,-16.6 0.01,14.5 z m 33.89,18.77 v -11.46 c 1.65,-8.16 3.66,-15.74 6.02,-22.72 2.4,-7.07 4.92,-13.69 7.55,-19.84 2.64,-6.22 5.24,-12.09 7.82,-17.61 2.61,-5.54 4.96,-10.91 7.05,-16.11 2.09,-5.2 3.78,-10.31 5.06,-15.32 1.32,-5.04 1.98,-10.19 1.99,-15.44 0.02,-7.09 -1.08,-11.83 -3.29,-14.21 -2.22,-2.39 -5.3,-2.22 -9.25,0.5 -3.76,2.58 -6.86,6.64 -9.31,12.17 -2.42,5.45 -3.84,11.76 -4.27,18.93 l -8.98,4.62 c 0.66,-10.74 2.99,-20.54 7,-29.41 4.05,-8.9 9.24,-15.54 15.58,-19.91 6.97,-4.8 12.31,-5.39 16.03,-1.76 3.74,3.54 5.6,10.97 5.56,22.29 -0.01,5.01 -0.65,10.42 -1.9,16.21 -1.23,5.77 -3.05,11.94 -5.48,18.53 -2.42,6.58 -7.05,17.35 -13.87,32.31 -3.74,8.24 -6.72,15.41 -8.93,21.51 -2.21,6.03 -3.8,11.48 -4.77,16.37 l 35.78,-24.4 -0.05,13.87 z m 102.88,-134.26 c -0.15,21.6 -2.32,39.44 -6.49,53.56 -4.13,14.07 -10.16,23.8 -18.09,29.2 -7.93,5.39 -13.85,3.84 -17.78,-4.65 -3.93,-8.5 -5.86,-23.54 -5.78,-45.14 0.09,-22.16 2.08,-40.14 6,-53.9 3.95,-13.82 10.14,-23.64 18.57,-29.44 8.2,-5.65 14.21,-4.18 18.03,4.43 3.85,8.58 5.69,23.91 5.54,45.94 z m -9.02,6.18 c 0.12,-18.7 -0.96,-31.47 -3.25,-38.29 -2.25,-6.85 -6.05,-8.44 -11.38,-4.77 -5.46,3.76 -9.4,10.61 -11.84,20.55 -2.4,9.9 -3.64,24.31 -3.72,43.18 -0.08,18.28 1.05,30.82 3.4,37.63 2.37,6.79 6.17,8.4 11.4,4.84 5.19,-3.54 9.03,-10.45 11.5,-20.74 2.48,-10.3 3.77,-24.43 3.89,-42.4 z m 17.79,52.06 0.09,-11.6 c 1.73,-8.27 3.81,-15.94 6.26,-23.01 2.47,-7.17 5.06,-13.86 7.77,-20.1 2.71,-6.3 5.38,-12.24 8.02,-17.83 2.67,-5.62 5.09,-11.06 7.24,-16.33 2.15,-5.27 3.89,-10.44 5.22,-15.52 1.37,-5.1 2.08,-10.32 2.13,-15.63 0.07,-7.18 -1,-11.98 -3.21,-14.39 -2.22,-2.41 -5.33,-2.24 -9.35,0.52 -3.8,2.62 -6.97,6.74 -9.48,12.34 -2.48,5.52 -3.97,11.91 -4.45,19.17 l -9.1,4.69 c 0.74,-10.87 3.17,-20.8 7.28,-29.78 4.16,-9.02 9.45,-15.75 15.88,-20.18 7.07,-4.87 12.47,-5.48 16.19,-1.81 3.75,3.58 5.57,11.1 5.45,22.56 -0.05,5.08 -0.74,10.55 -2.05,16.42 -1.28,5.84 -3.17,12.09 -5.67,18.76 -2.49,6.67 -7.24,17.59 -14.24,32.74 -3.84,8.35 -6.9,15.61 -9.18,21.78 -2.27,6.11 -3.92,11.64 -4.94,16.58 l 36.3,-24.74 -0.15,14.04 z m 95.47,-94.18 -0.41,29.46 -8.46,5.76 0.4,-29.43 -33.01,22.53 0.15,-12.91 33.26,-110.42 9.48,-6.53 -1.23,88.39 9.89,-6.76 -0.19,13.17 z m -7.37,-76.66 c -0.07,0.41 -0.56,2.39 -1.47,5.91 -0.91,3.52 -1.58,6.02 -2.03,7.5 l -18.63,61.77 -2.77,8.68 -0.82,2.39 24.79,-16.94 z"
       id="text43"
       style="font-size:133.333px;line-height:0;font-family:'Liberation Sans';-inkscape-font-specification:'Liberation Sans';letter-spacing:0.31px;fill-opacity:0;stroke:#000000;stroke-width:4.3;stroke-linecap:round;stroke-linejoin:round"
       aria-label="ФРКТ-2024" />
    <g
       id="g9">
      <path
         id="path1"
         d="M 1825.15 1246.07 C 1814.11 1253.91 1804.1 1262.25 1794.12 1270.59 C 1771.08 1289.85 1749.25 1309.63 1726.87 1329.17 C 1711.21 1342.85 1695.24 1356.4 1678.2 1369.69 C 1682.76 1354.48 1687.31 1339.29 1691.87 1324.09 C 1691.65 1324.03 1691.43 1323.96 1691.21 1323.9 C 1637.26 1371.56 1583.32 1419.21 1529.39 1466.85 C 1529.09 1466.73 1528.78 1466.61 1528.48 1466.49 C 1533 1461.41 1537.49 1456.33 1542.05 1451.26 C 1572.53 1417.44 1603.01 1383.62 1634.94 1350.31 C 1663.46 1320.54 1692.95 1291.14 1724.4 1262.51 C 1741.99 1246.5 1759.96 1230.67 1778.8 1215.21 C 1779.29 1214.8 1779.58 1214.3 1779.96 1213.85 L 1800.19 1198.02 C 1802.44 1196.26 1804.7 1194.5 1806.96 1192.73 C 1832.42 1172.85 1859.26 1153.68 1887.54 1135.25 C 1888.95 1134.33 1890.5 1133.8 1892.53 1133.51 C 1924.31 1128.93 1956.4 1125.18 1988.75 1122.09 C 2036.23 1117.56 2084.15 1114.7 2132.14 1111.98 C 2137.07 1111.7 2141.99 1111.38 2147.28 1111.05 C 2139.49 1104.15 2132.04 1097.59 2124.63 1091.01 C 2101.87 1070.78 2078.78 1050.71 2059.01 1029.4 C 2045.88 1015.24 2033.88 1000.79 2027.3 984.988 C 2026.01 981.879 2024.43 978.752 2024.75 975.524 C 2025.78 964.905 2027.49 954.331 2029.62 943.782 C 2031.85 932.741 2035.08 921.805 2037.93 910.832 C 2038.95 908.998 2039.47 907.105 2039.65 905.171 C 2042.61 897.29 2045.44 889.392 2048.54 881.533 C 2064.81 840.241 2087.56 800.285 2113.3 760.954 C 2116.4 756.204 2119.6 751.472 2123.05 746.283 C 2124.37 747.846 2123.44 748.867 2123.11 749.837 C 2113.13 779.388 2102.56 808.877 2093.63 838.593 C 2087.3 859.71 2082.22 880.946 2080.29 902.453 C 2080.17 903.83 2080.21 905.212 2080.17 906.592 C 2080.12 907.91 2080.07 909.227 2080.02 910.545 C 2078.94 919.189 2079.57 927.842 2080.44 936.49 C 2084.6 977.722 2107.51 1015.28 2144.68 1050.08 C 2157.49 1062.06 2171.46 1073.54 2186.94 1085.02 C 2211.64 1052.7 2236.63 1020.73 2273.34 992.834 C 2274.73 993.524 2274.18 994.359 2274.35 995.069 C 2282.54 1029.91 2269.29 1062.55 2249.08 1094.47 C 2230.66 1123.56 2207.74 1151.32 2183.57 1178.72 C 2161.68 1203.54 2138.28 1227.82 2115.2 1252.22 C 2114.65 1252.8 2113.96 1253.35 2113 1254.22 C 2108.48 1244.42 2104.1 1234.93 2099.59 1225.16 C 2096.95 1226.98 2095.85 1229.03 2094.31 1230.9 C 2077.86 1250.79 2061.46 1270.7 2045.05 1290.61 C 2044.74 1290.99 2044.57 1291.42 2044.33 1291.83 C 2042.25 1294.04 2040.2 1296.26 2038.83 1298.68 C 2036.21 1300.43 2035.77 1303.05 2032.48 1304.89 C 2033.6 1302.63 2034.57 1300.67 2035.54 1298.72 C 2037.2 1296.48 2038.63 1294.2 2039.49 1291.78 C 2039.99 1291.08 2040.58 1290.39 2040.99 1289.66 C 2054.51 1265.89 2068 1242.12 2081.49 1218.35 C 2087.65 1207.5 2093.8 1196.66 2099.93 1185.85 C 2098.71 1185.27 2097.52 1185.46 2096.41 1185.43 C 2082.06 1184.98 2067.73 1184.83 2053.4 1185.01 C 2012.41 1185.53 1972.37 1188.87 1933.63 1196.85 C 1898.28 1204.13 1868.49 1216.19 1843.89 1233.06 C 1837.09 1237.1 1831.17 1241.61 1825.15 1246.07"
         style="fill:#251b1c;fill-opacity:1;fill-rule:nonzero;stroke:none;stroke-width:0.0500811" />
      <path
         id="path2"
         d="M 1800.19 1198.02 L 1779.96 1213.85 C 1767.13 1203.03 1756.71 1191.41 1748.08 1179.22 C 1723.08 1143.92 1714.98 1107.39 1723.76 1069.74 C 1730.32 1041.64 1746.21 1015.67 1771.37 991.891 C 1786.03 978.039 1803.04 965.394 1823.05 954.298 C 1850.82 938.896 1882.38 927.113 1917.55 918.817 C 1956.69 909.582 1997.42 905.153 2039.65 905.17 C 2039.47 907.106 2038.94 908.998 2037.93 910.832 C 2007.13 912.573 1977.24 916.534 1948.63 923.487 C 1892.7 937.081 1847.09 958.623 1811.96 988.266 C 1791.84 1005.25 1776.72 1023.77 1767.17 1043.93 C 1745.76 1089.12 1750.81 1133.6 1782.06 1177.26 C 1787.21 1184.44 1792.89 1191.5 1800.19 1198.02"
         style="fill:#ed1c24;fill-opacity:1;fill-rule:nonzero;stroke:none;stroke-width:0.0500811" />
      <path
         id="path3"
         d="M 2039.49 1291.78 C 2038.63 1294.2 2037.2 1296.48 2035.54 1298.72 C 2005.86 1298.12 1976.8 1295.07 1948.32 1289.69 C 1901.84 1280.91 1860.75 1266.4 1825.15 1246.07 C 1831.17 1241.61 1837.09 1237.1 1843.89 1233.06 C 1853.95 1238.95 1864.01 1244.84 1874.94 1250.16 C 1898.02 1261.4 1923.13 1270.48 1950.25 1277.51 C 1978.91 1284.93 2008.75 1289.45 2039.49 1291.78"
         style="fill:#ed1c24;fill-opacity:1;fill-rule:nonzero;stroke:none;stroke-width:0.0500811" />
      <path
         id="path4"
         d="M 2038.83 1298.68 C 2040.2 1296.26 2042.24 1294.04 2044.33 1291.83 C 2064.1 1293.29 2083.85 1293.12 2103.57 1292.05 C 2142.8 1289.92 2179.88 1283.42 2214.99 1272.92 C 2215.34 1273.09 2215.68 1273.28 2216.02 1273.46 C 2161.81 1291.1 2103.71 1299.53 2041.8 1298.88 C 2040.81 1298.87 2039.82 1298.75 2038.83 1298.68"
         style="fill:#ed1c24;fill-opacity:1;fill-rule:nonzero;stroke:none;stroke-width:0.0500811" />
      <path
         id="path5"
         d="M 2080.02 910.545 C 2080.07 909.228 2080.12 907.911 2080.17 906.592 C 2117.67 909.172 2153.71 915.203 2188.25 924.764 C 2187.95 924.962 2187.65 925.159 2187.33 925.343 C 2159.59 918.445 2130.98 913.724 2101.32 911.671 C 2094.23 911.181 2087.11 910.912 2080.02 910.541"
         style="fill:#ed1c24;fill-opacity:1;fill-rule:nonzero;stroke:none;stroke-width:0.0500811" />
      <path
         id="path6"
         d="M 2187.33 925.347 C 2187.63 925.149 2187.93 924.952 2188.26 924.768 C 2197.45 926.982 2206.05 929.908 2214.38 933.177 C 2205.37 930.568 2196.35 927.959 2187.34 925.351"
         style="fill:#f14a55;fill-opacity:1;fill-rule:nonzero;stroke:none;stroke-width:0.0500811" />
      <path
         id="path7"
         d="M 2216.02 1273.46 C 2215.67 1273.28 2215.33 1273.1 2214.99 1272.92 C 2223.47 1270.02 2231.94 1267.12 2240.41 1264.23 C 2232.74 1267.75 2224.75 1270.96 2216.02 1273.46"
         style="fill:#f14a55;fill-opacity:1;fill-rule:nonzero;stroke:none;stroke-width:0.0500811" />
      <path
         id="path8"
         d="M 2207.01 1312.66 L 2220.2 1304.02 L 2231.46 1310.39 L 2265.75 1287.94 C 2276.11 1281.17 2285.5 1277.63 2293.78 1277.26 C 2304.38 1276.76 2317.11 1280.79 2331.84 1289.1 C 2346.86 1297.58 2354.57 1305.09 2355.12 1311.88 C 2355.58 1317.51 2350.75 1323.64 2340.63 1330.25 L 2306.28 1352.73 L 2318 1359.36 L 2304.78 1368.01 L 2293.06 1361.38 L 2258.58 1383.93 C 2248.48 1390.54 2238.8 1393.9 2229.54 1394.03 C 2218.38 1394.18 2205.52 1390.05 2190.56 1381.55 C 2175.6 1373.06 2168.22 1365.71 2168.25 1359.25 C 2168.26 1354.2 2173.51 1348.33 2183.86 1341.56 L 2218.26 1319.03 Z M 2196.96 1348.99 C 2191.01 1352.88 2188.31 1356.56 2189.13 1360.03 C 2189.95 1363.5 2194.78 1367.82 2203.76 1372.92 C 2213.02 1378.17 2220.74 1380.97 2227.04 1381.38 C 2233.35 1381.95 2239.48 1380.21 2245.31 1376.4 L 2279.76 1353.85 L 2231.38 1326.46 Z M 2327.33 1322.74 C 2333.29 1318.83 2335.71 1314.99 2334.44 1311.11 C 2333.18 1307.4 2328.04 1302.91 2318.75 1297.67 C 2309.75 1292.58 2302.31 1289.96 2296.56 1289.72 C 2290.81 1289.47 2284.97 1291.38 2278.89 1295.36 L 2244.58 1317.82 L 2292.98 1345.21 Z M 2416.6 1294.88 L 2381.06 1274.85 L 2439.69 1236.49 C 2447.74 1231.22 2451.52 1225.61 2450.89 1219.74 C 2450.27 1213.87 2444.73 1208.08 2434.13 1202.12 C 2423.52 1196.17 2413.44 1193.19 2403.88 1193.18 C 2394.19 1193.25 2385.52 1195.79 2377.62 1200.96 L 2305.35 1248.28 L 2403.36 1303.54 Z M 2331.7 1247.04 L 2390.14 1208.79 C 2394.15 1206.16 2398.7 1204.93 2403.91 1205.17 C 2408.97 1205.34 2414.59 1207.24 2420.9 1210.78 C 2427.2 1214.32 2430.62 1217.66 2431.28 1220.72 C 2431.95 1223.77 2430.27 1226.61 2426.5 1229.07 L 2367.89 1267.43 Z M 2535.95 1216.81 L 2490.69 1191.43 L 2503.93 1182.77 L 2607.97 1169.71 L 2629.82 1155.41 L 2511.33 1169.73 L 2527.25 1103.01 L 2504.54 1117.87 L 2490.72 1175.37 L 2477.48 1184.03 L 2437.62 1161.68 L 2424.4 1170.34 L 2522.7 1225.48 Z M 2555.91 1100.28 L 2595.77 1074.18 L 2681.22 1121.8 L 2694.49 1113.12 L 2609.02 1065.51 L 2648.77 1039.49 L 2635.52 1032.12 L 2542.69 1092.9 Z"
         style="fill:#131212;fill-opacity:1;fill-rule:nonzero;stroke:none;stroke-width:0.0577655" />
    </g>
    <g
       id="Слой_11"
       transform="translate(3113.58,2816.53)"
       style="fill:#000000">
      <path
         id="rect29"
         style="fill:#000000;stroke:#4c4c4c;stroke-width:0.25;stroke-miterlimit:10"
         class="st6"
         d="M -698.374,-566.749 461.225,-1284.29 462.56,-880.831 -699.783,-141.01 Z" />
    </g>
    <path
       class="st7"
       d="m 2640.503,2163.982 c -0.186,1.42 -18.881,144.032 -18.881,144.032 l 15.128,9.97 11.365,-7.13 c 0,0 1.72,-0.792 4.481,-6.404 2.76,-5.611 18.456,-137.825 18.456,-137.825 0,0 1.076,-25.839 -18.16,-13.892 -0.394,0.245 -5.322,3.36 -8.814,6.506 -2.095,1.888 -3.505,4.211 -3.575,4.743 z"
       id="path29"
       style="fill:#4d4d4d" />
    <path
       class="st7"
       d="m 2596.363,2502.561 c 0.197,-1.434 18.981,-143.322 18.981,-143.322 l 23.161,-35.166 8.449,-5.304 c 1.224,-1.152 4.717,0.579 4.157,6.021 -0.509,4.955 -18.452,138.257 -18.452,138.257 0,0 -0.52,8.712 -24.845,35.574 -0.354,0.391 -6.736,5.708 -9.837,5.851 -1.861,0.086 -1.687,-1.373 -1.614,-1.911 z"
       id="path30"
       style="fill:#4d4d4d" />
    <g
       id="g31"
       transform="translate(3113.58,2816.53)"
       style="fill:#4d4d4d">
      <path
         class="st7"
         d="m -487.073,-616.76 -107.203,66.7 c -1.63,1.014 -2.797,0.513 -2.593,-1.113 l 3.187,-25.376 c 0.205,-1.626 1.705,-3.784 3.334,-4.796 l 107.152,-66.538 c 1.614,-1.002 2.77,-0.5 2.569,1.117 l -3.142,25.237 c -0.202,1.618 -1.688,3.764 -3.304,4.769 z"
         id="path31"
         style="fill:#4d4d4d" />
    </g>
    <g
       id="g32"
       transform="translate(3113.58,2816.53)"
       style="fill:#4d4d4d">
      <path
         class="st7"
         d="m -527.701,-303.369 -107.746,68.341 c -1.638,1.039 -2.811,0.55 -2.605,-1.088 l 3.209,-25.544 c 0.205,-1.637 1.714,-3.824 3.351,-4.86 l 107.693,-68.177 c 1.623,-1.027 2.784,-0.536 2.582,1.092 l -3.164,25.404 c -0.203,1.628 -1.697,3.803 -3.32,4.832 z"
         id="path32"
         style="fill:#4d4d4d" />
    </g>
    <g
       id="g33"
       transform="translate(3113.58,2816.53)"
       style="fill:#4d4d4d">
      <path
         id="polygon32"
         style="fill:#4d4d4d"
         class="st7"
         d="m -502.511,-463.109 -120.073,75.434 -11.554,-7.212 15.726,-24.33 120.013,-75.251 12.601,4.751 z" />
    </g>
    <path
       class="st7"
       d="m 2511.331,2248.28 c -0.199,1.434 -20.232,145.478 -20.232,145.478 l -20.462,28.013 -9.769,5.889 c 0,0 -3.121,-0.727 -4.688,-4.195 -1.566,-3.467 18.963,-139.167 18.963,-139.167 0,0 5.882,-20.718 25.139,-35.632 2.114,-1.637 6.689,-5.773 9.808,-5.909 1.872,-0.081 1.316,4.985 1.241,5.523 z"
       id="path33"
       style="fill:#4d4d4d" />
    <path
       class="st7"
       d="m 2468.127,2581.849 c 0.166,-1.39 16.813,-140.627 16.813,-140.627 l -15.358,-9.197 -9.363,3.937 c 0,0 -3.7,4.161 -6.401,9.702 -2.701,5.542 -16.609,134.906 -16.609,134.906 0,0 0.965,16.849 18.581,12.771 1.934,-0.448 5.958,-0.753 9.435,-3.968 2.085,-1.929 2.84,-7.002 2.902,-7.524 z"
       id="path34"
       style="fill:#4d4d4d" />
    <path
       id="circle34"
       style="fill:#4d4d4d"
       class="st7"
       d="m 2682.346,2437.603 c -0.01,4.477 -1.931,9.986 -5.347,15.316 -3.418,5.331 -8.05,10.047 -12.879,13.11 -4.83,3.065 -9.461,4.224 -12.873,3.221 -3.413,-1.003 -5.326,-4.086 -5.317,-8.571 0.01,-4.485 1.939,-10.002 5.364,-15.337 3.423,-5.334 8.06,-10.047 12.89,-13.104 4.828,-3.056 9.453,-4.206 12.858,-3.199 3.405,1.006 5.312,4.087 5.304,8.564 z" />
    <path
       class="st7"
       d="m 2940.393,1977.72 c -0.179,1.399 -18.187,141.929 -18.187,141.929 l 14.781,9.942 11.079,-6.951 c 0,0 1.678,-0.768 4.363,-6.285 2.684,-5.514 17.784,-135.812 17.784,-135.812 0,0 1.007,-25.479 -17.747,-13.831 -0.384,0.239 -5.189,3.277 -8.591,6.355 -2.042,1.847 -3.415,4.128 -3.482,4.653 z"
       id="path35"
       style="fill:#ff0000" />
    <path
       class="st7"
       d="m 2897.88,2311.349 c 0.19,-1.413 18.284,-141.221 18.284,-141.221 l 22.546,-34.519 8.237,-5.171 c 1.192,-1.127 4.604,0.606 4.067,5.969 -0.489,4.884 -17.778,136.233 -17.778,136.233 0,0 -0.493,8.588 -24.187,34.906 -0.346,0.383 -6.565,5.58 -9.591,5.699 -1.816,0.072 -1.649,-1.366 -1.578,-1.896 z"
       id="path36"
       style="fill:#ff0000" />
    <g
       id="g37"
       transform="translate(3113.58,2816.53)"
       style="fill:#ff0000">
      <path
         class="st7"
         d="m -186.786,-803.61 -104.508,65.022 c -1.589,0.989 -2.728,0.486 -2.532,-1.116 l 3.068,-25.005 c 0.197,-1.602 1.657,-3.72 3.245,-4.706 l 104.458,-64.865 c 1.574,-0.978 2.703,-0.474 2.509,1.119 l -3.024,24.871 c -0.194,1.594 -1.641,3.7 -3.216,4.68 z"
         id="path37"
         style="fill:#ff0000" />
    </g>
    <g
       id="g38"
       transform="translate(3113.58,2816.53)"
       style="fill:#ff0000">
      <path
         class="st7"
         d="m -225.914,-494.802 -105.027,66.616 c -1.597,1.013 -2.742,0.521 -2.544,-1.092 l 3.088,-25.169 c 0.198,-1.612 1.666,-3.758 3.262,-4.768 l 104.977,-66.457 c 1.582,-1.002 2.716,-0.509 2.521,1.095 l -3.045,25.032 c -0.195,1.605 -1.649,3.739 -3.232,4.743 z"
         id="path38-7"
         style="fill:#ff0000" />
    </g>
    <g
       id="g39"
       transform="translate(3113.58,2816.53)"
       style="fill:#ff0000">
      <path
         id="polygon38"
         style="fill:#ff0000"
         class="st7"
         d="m -201.597,-652.171 -117.049,73.534 -11.286,-7.197 15.305,-23.881 116.991,-73.356 12.305,4.776 z" />
    </g>
    <path
       class="st7"
       d="m 2814.476,2059.945 c -0.192,1.413 -19.5,143.335 -19.5,143.335 l -19.919,27.479 -9.523,5.737 c 0,0 -3.047,-0.739 -4.581,-4.17 -1.534,-3.431 18.27,-137.116 18.27,-137.116 0,0 5.705,-20.391 24.471,-34.963 2.06,-1.6 6.518,-5.646 9.562,-5.758 1.826,-0.066 1.292,4.926 1.22,5.456 z"
       id="path39"
       style="fill:#ff0000" />
    <path
       class="st7"
       d="m 2772.876,2388.614 c 0.16,-1.37 16.17,-138.568 16.17,-138.568 l -15.002,-9.182 -9.129,3.816 c 0,0 -3.604,4.076 -6.23,9.521 -2.626,5.446 -15.979,132.926 -15.979,132.926 0,0 0.969,16.623 18.151,12.73 1.886,-0.428 5.813,-0.7 9.199,-3.845 2.032,-1.887 2.76,-6.885 2.82,-7.398 z"
       id="path40-0"
       style="fill:#ff0000" />
    <path
       id="circle40"
       style="fill:#4d4d4d"
       class="st7"
       d="m 2981.686,2247.903 c 0,4.416 -1.868,9.836 -5.194,15.068 -3.326,5.233 -7.839,9.852 -12.547,12.838 -4.709,2.987 -9.227,4.097 -12.558,3.083 -3.333,-1.014 -5.205,-4.069 -5.203,-8.492 10e-4,-4.423 1.875,-9.851 5.209,-15.089 3.332,-5.235 7.85,-9.851 12.558,-12.831 4.707,-2.979 9.219,-4.08 12.544,-3.062 3.324,1.017 5.191,4.069 5.191,8.485 z" />
    <path
       id="circle41"
       style="fill:#ff0000"
       class="st7"
       d="m 3031.8624,2004.343 c 9e-4,4.395 -1.8556,9.771 -5.162,14.947 -3.3074,5.177 -7.7952,9.731 -12.4768,12.658 -4.6836,2.929 -9.1766,3.99 -12.4916,2.95 -3.315,-1.041 -5.177,-4.099 -5.177,-8.502 0,-4.402 1.862,-9.786 5.177,-14.967 3.313,-5.18 7.806,-9.73 12.4881,-12.652 4.6808,-2.92 9.1683,-3.973 12.4762,-2.929 3.3072,1.044 5.1652,4.1 5.1661,8.495 z" />
    <path
       id="circle42"
       style="fill:#ff0000"
       class="st7"
       d="m 3012.478,2157.688 c 0,4.406 -1.862,9.807 -5.176,15.015 -3.316,5.211 -7.816,9.803 -12.509,12.766 -4.695,2.964 -9.199,4.055 -12.521,3.032 -3.323,-1.024 -5.19,-4.078 -5.189,-8.492 0,-4.413 1.868,-9.822 5.191,-15.036 3.322,-5.212 7.825,-9.802 12.52,-12.759 4.692,-2.955 9.19,-4.038 12.506,-3.011 3.315,1.027 5.177,4.079 5.178,8.485 z" />
    <path
       class="st7"
       d="m 3231.088,1797.15 c -0.172,1.38 -17.5251,139.899 -17.5251,139.899 l 14.4481,9.913 10.806,-6.781 c 0,0 1.637,-0.746 4.249,-6.169 2.612,-5.422 17.143,-133.872 17.143,-133.872 0,0 0.942,-25.13 -17.351,-13.76 -0.375,0.23 -5.061,3.19 -8.378,6.2 -1.991,1.81 -3.327,4.05 -3.392,4.57 z"
       id="path42-9"
       style="fill:#4d4d4d" />
    <path
       class="st7"
       d="m 3190.1257,2125.999 c 0.1826,-1.393 17.6206,-139.192 17.6206,-139.192 l 21.9567,-33.896 8.034,-5.043 c 1.162,-1.104 4.496,0.629 3.98,5.917 -0.469,4.815 -17.135,134.277 -17.135,134.277 0,0 -0.468,8.47 -23.5585,34.264 -0.3367,0.376 -6.4004,5.459 -9.3542,5.555 -1.7726,0.057 -1.612,-1.36 -1.5436,-1.882 z"
       id="path43"
       style="fill:#ff0000" />
    <g
       id="g44"
       transform="translate(3113.58,2816.53)"
       style="fill:#ff0000">
      <path
         class="st7"
         d="M 104.288,-984.746 2.36001,-921.329 c -1.549718,0.964 -2.662938,0.461 -2.473628,-1.119 L 2.8404,-947.095 c 0.18944,-1.579 1.61147,-3.658 3.16054,-4.62 L 107.88,-1014.98 c 1.536,-0.95 2.639,-0.45 2.452,1.12 l -2.912,24.519 c -0.187,1.572 -1.596,3.639 -3.132,4.595 z"
         id="path44"
         style="fill:#ff0000" />
    </g>
    <g
       id="g45"
       transform="translate(3113.58,2816.53)"
       style="fill:#ff0000">
      <path
         class="st7"
         d="M 66.5903,-680.365 -35.8355,-615.4 c -1.5573,0.988 -2.6757,0.495 -2.4851,-1.095 l 2.9735,-24.806 c 0.1907,-1.589 1.62,-3.695 3.1766,-4.681 l 102.3772,-64.811 c 1.5428,-0.976 2.6511,-0.482 2.4634,1.098 l -2.9319,24.674 c -0.1881,1.582 -1.6045,3.677 -3.1479,4.656 z"
         id="path45"
         style="fill:#ff0000" />
    </g>
    <g
       id="g46"
       transform="translate(3113.58,2816.53)"
       style="fill:#ff0000">
      <path
         id="polygon45"
         style="fill:#ff0000"
         class="st7"
         d="m 90.0747,-835.444 -114.1543,71.715 -11.0298,-7.179 14.9022,-23.451 114.0981,-71.542 12.0221,4.798 z" />
    </g>
    <path
       class="st7"
       d="m 3108.2855,1877.392 c -0.1849,1.392 -18.8013,141.264 -18.8013,141.264 l -19.4004,26.967 -9.2869,5.592 c 0,0 -2.9755,-0.751 -4.4791,-4.146 -1.5035,-3.396 17.6097,-135.136 17.6097,-135.136 0,0 5.536,-20.075 23.8328,-34.319 2.0084,-1.564 6.3533,-5.524 9.325,-5.613 1.7827,-0.053 1.2695,4.869 1.2002,5.391 z"
       id="path46"
       style="fill:#ff0000" />
    <path
       class="st7"
       d="m 3068.2142,2201.327 c 0.1538,-1.35 15.5578,-136.579 15.5578,-136.579 l -14.6605,-9.164 -8.9057,3.699 c 0,0 -3.5111,3.996 -6.0657,9.349 -2.5553,5.354 -15.3804,131.012 -15.3804,131.012 0,0 0.974,16.405 17.7404,12.687 1.8406,-0.408 5.6729,-0.648 8.9738,-3.726 1.9801,-1.847 2.6826,-6.772 2.7403,-7.278 z"
       id="path47"
       style="fill:#4d4d4d" />
    <path
       id="circle47"
       style="fill:#4d4d4d"
       class="st7"
       d="m 3271.848,2064.002 c 0.014,9.073 -7.718,21.341 -17.277,27.405 -9.567,6.069 -17.339,3.625 -17.351,-5.463 -0.012,-9.087 7.737,-21.364 17.303,-27.418 9.557,-6.05 17.311,-3.596 17.325,5.476 z" />
    <path
       class="st7"
       d="m 3514.67,1621.05 c -0.166,1.36 -16.89,137.93 -16.89,137.93 l 14.126,9.88 10.544,-6.62 c 0,0 1.597,-0.72 4.14,-6.06 2.542,-5.33 16.527,-131.97 16.527,-131.97 0,0 0.88,-24.79 -16.968,-13.71 -0.366,0.23 -4.939,3.12 -8.173,6.07 -1.942,1.77 -3.243,3.97 -3.306,4.48 z"
       id="path48"
       style="fill:#ff0000" />
    <path
       class="st7"
       d="m 3475.195,1945.252 c 0.176,-1.373 16.984,-137.222 16.984,-137.222 l 21.389,-33.29 7.839,-4.92 c 1.134,-1.08 4.392,0.65 3.898,5.87 -0.451,4.74 -16.519,132.371 -16.519,132.371 0,0 -0.444,8.355 -22.953,33.644 -0.329,0.368 -6.242,5.341 -9.127,5.415 -1.731,0.044 -1.577,-1.353 -1.511,-1.868 z"
       id="path49"
       style="fill:#ff0000" />
    <g
       id="g50"
       transform="translate(3113.58,2816.53)"
       style="fill:#ff0000">
      <path
         class="st7"
         d="m 388.234,-1161.39 -99.442,61.87 c -1.512,0.94 -2.6,0.43 -2.417,-1.12 l 2.845,-24.3 c 0.182,-1.56 1.567,-3.6 3.079,-4.54 l 99.395,-61.72 c 1.498,-0.93 2.576,-0.43 2.397,1.12 l -2.805,24.17 c -0.18,1.55 -1.553,3.58 -3.052,4.52 z"
         id="path50"
         style="fill:#ff0000" />
    </g>
    <g
       id="g51"
       transform="translate(3113.58,2816.53)"
       style="fill:#ff0000">
      <path
         class="st7"
         d="m 351.909,-861.317 -99.92,63.376 c -1.519,0.963 -2.612,0.469 -2.428,-1.098 l 2.863,-24.454 c 0.184,-1.566 1.576,-3.634 3.095,-4.596 l 99.873,-63.225 c 1.505,-0.953 2.588,-0.458 2.408,1.1 l -2.824,24.325 c -0.181,1.56 -1.561,3.616 -3.067,4.572 z"
         id="path51"
         style="fill:#ff0000" />
    </g>
    <g
       id="g52"
       transform="translate(3113.58,2816.53)"
       style="fill:#ff0000">
      <path
         id="polygon51"
         style="fill:#ff0000"
         class="st7"
         d="m 374.594,-1014.17 -111.366,69.963 -10.782,-7.161 14.514,-23.033 111.312,-69.799 11.75,4.82 z" />
    </g>
    <path
       class="st7"
       d="m 3394.868,1699.38 c -0.178,1.37 -18.131,139.253 -18.131,139.253 l -18.901,26.471 -9.06,5.453 c 0,0 -2.907,-0.762 -4.38,-4.122 -1.474,-3.361 16.976,-133.205 16.976,-133.205 0,0 5.374,-19.77 23.218,-33.7 1.959,-1.53 6.196,-5.41 9.097,-5.48 1.741,-0.04 1.248,4.82 1.181,5.33 z"
       id="path52"
       style="fill:#ff0000" />
    <path
       class="st7"
       d="m 3356.263,2018.715 c 0.148,-1.33 14.971,-134.644 14.971,-134.644 l -14.331,-9.145 -8.691,3.588 c 0,0 -3.422,3.918 -5.908,9.181 -2.486,5.264 -14.805,129.151 -14.805,129.151 0,0 0.978,16.193 17.343,12.644 1.797,-0.39 5.539,-0.599 8.757,-3.613 1.931,-1.808 2.609,-6.663 2.664,-7.162 z"
       id="path53"
       style="fill:#4d4d4d" />
    <path
       id="circle53"
       style="fill:#4d4d4d"
       class="st7"
       d="m 3554.911,1884.652 c 0.028,8.953 -7.504,21.004 -16.83,26.921 -9.335,5.921 -16.929,3.455 -16.956,-5.512 -0.027,-8.967 7.523,-21.027 16.855,-26.934 9.325,-5.902 16.902,-3.427 16.931,5.525 z" />
    <path
       id="path17"
       style="fill:#d9d9d9;fill-opacity:0.24841794;stroke:#000000;stroke-width:0;stroke-dasharray:none;stroke-opacity:1"
       d="M 1887.3867 370.6543 C 1871.0952 369.93424 1855.4106 371.67658 1841.3438 375.92383 L 1823.582 381.28711 L 1853.3379 397.625 C 1869.7034 406.6118 2239.9965 610.12955 2676.2109 849.88477 C 3112.4254 1089.6399 3470.0035 1285.9231 3470.8281 1286.0703 C 3471.6527 1286.2174 3482.4474 1282.8692 3494.8164 1278.6289 C 3507.1855 1274.3886 3528.2325 1270.0124 3541.5879 1268.9043 L 3565.8711 1266.8906 L 3417.1484 1185.5039 C 3335.3511 1140.7415 2974.9421 943.28716 2616.2402 746.7168 C 2118.0864 473.72606 1957.6797 387.15153 1937.0664 380.1543 C 1920.5757 374.55646 1903.6782 371.37435 1887.3867 370.6543 z M 3556.0469 1280.6641 C 3552.1233 1280.7034 3548.018 1280.8848 3543.6348 1281.1816 C 3516.3818 1283.0273 3486.5578 1291.3136 3491.0391 1295.7949 C 3492.6695 1297.4253 3516.7867 1311.4135 3544.6348 1326.8789 C 3572.4828 1342.3443 3597.2918 1354.501 3599.7656 1353.8945 C 3602.2394 1353.288 3614.072 1349.3546 3626.0605 1345.1523 C 3638.0491 1340.95 3656.6981 1336.6049 3667.502 1335.498 L 3687.1465 1333.4863 L 3644.5312 1310.2539 C 3602.0596 1287.0986 3583.5121 1280.3886 3556.0469 1280.6641 z " />
  </g>
</svg>
